arm260_states
version=1
nRows=38
nColumns=17
inDegrees=yes

# SIMM Motion File Header:
name arm260_states
datacolumns 17
datarows 38
otherdata 1
range 0.06000000 0.09009604
endheader
time	/jointset/r_shoulder/r_shoulder_elev/value	/jointset/r_shoulder/r_shoulder_elev/speed	/jointset/r_elbow/r_elbow_flex/value	/jointset/r_elbow/r_elbow_flex/speed	/forceset/TRIlong/activation	/forceset/TRIlong/fiber_length	/forceset/TRIlat/activation	/forceset/TRIlat/fiber_length	/forceset/TRImed/activation	/forceset/TRImed/fiber_length	/forceset/BIClong/activation	/forceset/BIClong/fiber_length	/forceset/BICshort/activation	/forceset/BICshort/fiber_length	/forceset/BRA/activation	/forceset/BRA/fiber_length
      0.06000000	      0.00000000	      0.00000000	     15.59999981	    260.00000028	      0.02000000	      0.14232839	      0.02000000	      0.07624712	      0.02000000	      0.07128050	      0.06141297	      0.14488910	      0.07880382	      0.14376141	      0.08691709	      0.08943910
      0.06009124	      0.00000000	      0.00003735	     15.62372293	    260.00044767	      0.02000000	      0.14233787	      0.02000000	      0.07625668	      0.02000000	      0.07129491	      0.06230299	      0.14488214	      0.07893427	      0.14375443	      0.08687548	      0.08943339
      0.06018249	     -0.00000000	     -0.00021528	     15.64744614	    260.00168794	      0.02000000	      0.14234736	      0.02000000	      0.07626624	      0.02000000	      0.07130712	      0.06325603	      0.14487500	      0.07907005	      0.14374742	      0.08683372	      0.08942768
      0.06063870	     -0.00000064	     -0.00271317	     15.76606452	    260.01088625	      0.02000000	      0.14239479	      0.02000000	      0.07631406	      0.02000000	      0.07135911	      0.06777737	      0.14483708	      0.07971911	      0.14371195	      0.08662590	      0.08939922
      0.06143590	     -0.00000467	     -0.00712314	     15.97335215	    260.02587771	      0.02000000	      0.14247773	      0.02000000	      0.07639769	      0.02000000	      0.07144341	      0.07480015	      0.14476395	      0.08074261	      0.14364848	      0.08626654	      0.08934972
      0.06269921	     -0.00001788	     -0.01464239	     16.30185873	    260.05186161	      0.02000000	      0.14260927	      0.02000000	      0.07653033	      0.02000000	      0.07157379	      0.08403350	      0.14463764	      0.08211416	      0.14354480	      0.08570684	      0.08927172
      0.06363629	     -0.00003452	     -0.02073317	     16.54555978	    260.07512085	      0.02000000	      0.14270696	      0.02000000	      0.07662891	      0.02000000	      0.07167540	      0.08967048	      0.14454008	      0.08296390	      0.14346605	      0.08529927	      0.08921413
      0.06457337	     -0.00005837	     -0.03107752	     16.78928826	    260.11360183	      0.02000000	      0.14280471	      0.02000000	      0.07672750	      0.02000000	      0.07177024	      0.09447359	      0.14444144	      0.08369384	      0.14338611	      0.08489803	      0.08915671
      0.06551046	     -0.00009270	     -0.04216073	     17.03305648	    260.15712018	      0.02000000	      0.14290253	      0.02000000	      0.07682622	      0.02000000	      0.07187169	      0.09858094	      0.14434277	      0.08432121	      0.14330526	      0.08450302	      0.08909942
      0.06644754	     -0.00013895	     -0.05738285	     17.27687119	    260.21536083	      0.02000000	      0.14300043	      0.02000000	      0.07692502	      0.02000000	      0.07196701	      0.10210378	      0.14424466	      0.08486065	      0.14322368	      0.08411414	      0.08904223
      0.06738462	     -0.00020012	     -0.07307409	     17.52074352	    260.27722035	      0.02000000	      0.14309841	      0.02000000	      0.07702392	      0.02000000	      0.07206845	      0.10513281	      0.14414741	      0.08532469	      0.14314153	      0.08373127	      0.08898513
      0.06832170	     -0.00027717	     -0.09205270	     17.76467809	    260.35042161	      0.02000000	      0.14319646	      0.02000000	      0.07712290	      0.02000000	      0.07216412	      0.10774271	      0.14405116	      0.08572398	      0.14305889	      0.08335431	      0.08892811
      0.06925879	     -0.00037227	     -0.11064296	     18.00868263	    260.42369226	      0.02000000	      0.14329458	      0.02000000	      0.07722199	      0.02000000	      0.07226566	      0.10999543	      0.14395595	      0.08606767	      0.14297586	      0.08298317	      0.08887115
      0.06985435	     -0.00044206	     -0.12366185	     18.16379754	    260.47413838	      0.02000000	      0.14335698	      0.02000000	      0.07728501	      0.02000000	      0.07232689	      0.11126554	      0.14389596	      0.08626082	      0.14292289	      0.08275027	      0.08883497
      0.07001885	     -0.00046269	     -0.12717756	     18.20664624	    260.48786346	      0.02000000	      0.14337421	      0.02000000	      0.07730243	      0.02000000	      0.07234418	      0.11171287	      0.14387946	      0.08634494	      0.14290824	      0.08267188	      0.08882498
      0.07018335	     -0.00048390	     -0.13069415	     18.24949720	    260.50159888	      0.02000000	      0.14339146	      0.02000000	      0.07731984	      0.02000000	      0.07236150	      0.11272252	      0.14386289	      0.08659382	      0.14289354	      0.08252154	      0.08881501
      0.07100584	     -0.00059868	     -0.14848857	     18.46378610	    260.57121007	      0.02000000	      0.14347770	      0.02000000	      0.07740696	      0.02000000	      0.07244823	      0.11738594	      0.14377858	      0.08774340	      0.14281914	      0.08177638	      0.08876536
      0.07347165	     -0.00103468	     -0.20684719	     19.10657886	    260.80135752	      0.02000000	      0.14373608	      0.02000000	      0.07766679	      0.02000000	      0.07271007	      0.12822845	      0.14351827	      0.09040375	      0.14258978	      0.07960632	      0.08861814
      0.07442756	     -0.00124400	     -0.23134911	     19.35592856	    260.89910444	      0.02000000	      0.14383699	      0.02000000	      0.07777166	      0.02000000	      0.07280879	      0.13144333	      0.14341659	      0.09118410	      0.14249925	      0.07879007	      0.08856146
      0.07582512	     -0.00159383	     -0.26805707	     19.72065646	    261.04752220	      0.02000000	      0.14398400	      0.02000000	      0.07791362	      0.02000000	      0.07299713	      0.13538708	      0.14326844	      0.09213159	      0.14236594	      0.07762101	      0.08847883
      0.07675453	     -0.00186366	     -0.30674838	     19.96334934	    261.18928079	      0.02000000	      0.14408184	      0.02000000	      0.07802526	      0.02000000	      0.07305812	      0.13759280	      0.14317052	      0.09265517	      0.14227683	      0.07685918	      0.08842400
      0.07754000	     -0.00211430	     -0.33098948	     20.16854523	    261.28479585	      0.02000000	      0.14416456	      0.02000000	      0.07810143	      0.02000000	      0.07313965	      0.13923672	      0.14308820	      0.09304158	      0.14220130	      0.07622485	      0.08837770
      0.07832548	     -0.00238249	     -0.35176006	     20.37381185	    261.37026414	      0.02000000	      0.14424733	      0.02000000	      0.07818531	      0.02000000	      0.07322359	      0.14070336	      0.14300632	      0.09338305	      0.14212559	      0.07559908	      0.08833145
      0.07978017	     -0.00292111	     -0.38889241	     20.75413594	    261.52396029	      0.02000000	      0.14440071	      0.02000000	      0.07834046	      0.02000000	      0.07337644	      0.14301756	      0.14285576	      0.09391419	      0.14198499	      0.07446235	      0.08824587
      0.07999906	     -0.00300676	     -0.39375489	     20.81138291	    261.54479836	      0.02000000	      0.14442380	      0.02000000	      0.07836393	      0.02000000	      0.07340073	      0.14332588	      0.14283323	      0.09398413	      0.14196378	      0.07429375	      0.08823300
      0.08010039	     -0.00304678	     -0.39603199	     20.83788746	    261.55450188	      0.02000000	      0.14443450	      0.02000000	      0.07837478	      0.02000000	      0.07341175	      0.14386423	      0.14282279	      0.09398359	      0.14195397	      0.07421333	      0.08822704
      0.08020173	     -0.00308703	     -0.39830968	     20.86439299	    261.56419543	      0.02000000	      0.14444519	      0.02000000	      0.07838562	      0.02000000	      0.07342270	      0.14447337	      0.14281230	      0.09397658	      0.14194415	      0.07413254	      0.08822109
      0.08070841	     -0.00329171	     -0.40958166	     20.99693529	    261.61219888	      0.02000000	      0.14449866	      0.02000000	      0.07843981	      0.02000000	      0.07347693	      0.14738264	      0.14275921	      0.09394173	      0.14189514	      0.07373068	      0.08819131
      0.08240869	     -0.00401947	     -0.44589553	     21.44188222	    261.76884280	      0.02000000	      0.14467815	      0.02000000	      0.07862165	      0.02000000	      0.07365947	      0.15568556	      0.14257545	      0.09382683	      0.14173103	      0.07240745	      0.08809153
      0.08324295	     -0.00439909	     -0.46430706	     21.66030015	    261.84810282	      0.02000000	      0.14476630	      0.02000000	      0.07871101	      0.02000000	      0.07374657	      0.15906483	      0.14248336	      0.09377160	      0.14165056	      0.07177213	      0.08804263
      0.08434640	     -0.00492463	     -0.48776457	     21.94929261	    261.95132150	      0.02000000	      0.14488291	      0.02000000	      0.07882919	      0.02000000	      0.07386678	      0.16295792	      0.14236065	      0.09369969	      0.14154402	      0.07094560	      0.08797799
      0.08528632	     -0.00539304	     -0.50948088	     22.19554987	    262.04517225	      0.02000000	      0.14498229	      0.02000000	      0.07892998	      0.02000000	      0.07396377	      0.16582826	      0.14225579	      0.09363943	      0.14145309	      0.07025368	      0.08792297
      0.08622624	     -0.00588155	     -0.52943939	     22.44189474	    262.13445141	      0.02000000	      0.14508170	      0.02000000	      0.07903078	      0.02000000	      0.07406795	      0.16834630	      0.14215092	      0.09358009	      0.14136191	      0.06957269	      0.08786799
      0.08716616	     -0.00638915	     -0.55118149	     22.68832464	    262.22925635	      0.02000000	      0.14518114	      0.02000000	      0.07913167	      0.02000000	      0.07416452	      0.17055819	      0.14204623	      0.09352164	      0.14127042	      0.06890242	      0.08781303
      0.08810609	     -0.00691653	     -0.57024447	     22.93484174	    262.31615542	      0.02000000	      0.14528061	      0.02000000	      0.07923259	      0.02000000	      0.07426939	      0.17250338	      0.14194183	      0.09346407	      0.14117859	      0.06824269	      0.08775810
      0.08904601	     -0.00746188	     -0.59064109	     23.18144048	    262.40653300	      0.02000000	      0.14538012	      0.02000000	      0.07933358	      0.02000000	      0.07436550	      0.17421571	      0.14183778	      0.09340736	      0.14108638	      0.06759329	      0.08770321
      0.08998593	     -0.00802529	     -0.60723509	     23.42812056	    262.48491190	      0.02000000	      0.14547965	      0.02000000	      0.07943461	      0.02000000	      0.07447103	      0.17572436	      0.14173411	      0.09335151	      0.14099373	      0.06695402	      0.08764833
      0.09009604	     -0.00809227	     -0.60946580	     23.45702184	    262.49486183	      0.02000000	      0.14549131	      0.02000000	      0.07944644	      0.02000000	      0.07448181	      0.17627357	      0.14172198	      0.09330662	      0.14098286	      0.06687979	      0.08764190
